<svg xmlns="http://www.w3.org/2000/svg" xmlns:xlink="http://www.w3.org/1999/xlink" width="40" zoomAndPan="magnify" viewBox="0 0 30 30.000001" height="40" preserveAspectRatio="xMidYMid meet" version="1.0"><defs><clipPath id="e48bfba4d1"><path d="M 0.484375 0 L 28.789062 0 L 28.789062 28 L 0.484375 28 Z M 0.484375 0 " clip-rule="nonzero"/></clipPath></defs><path fill="#000000" d="M 26.046875 13.671875 C 26.046875 14.457031 25.96875 15.234375 25.816406 16.003906 C 25.664062 16.773438 25.4375 17.523438 25.136719 18.25 C 24.835938 18.972656 24.464844 19.664062 24.03125 20.316406 C 23.59375 20.96875 23.097656 21.574219 22.542969 22.128906 C 21.988281 22.683594 21.382812 23.179688 20.730469 23.617188 C 20.074219 24.054688 19.386719 24.421875 18.660156 24.722656 C 17.933594 25.023438 17.1875 25.25 16.417969 25.402344 C 15.644531 25.558594 14.867188 25.632812 14.082031 25.632812 C 13.296875 25.632812 12.519531 25.558594 11.75 25.402344 C 10.976562 25.25 10.230469 25.023438 9.503906 24.722656 C 8.777344 24.421875 8.089844 24.054688 7.4375 23.617188 C 6.78125 23.179688 6.179688 22.683594 5.625 22.128906 C 5.066406 21.574219 4.570312 20.96875 4.136719 20.316406 C 3.699219 19.664062 3.332031 18.972656 3.03125 18.25 C 2.730469 17.523438 2.503906 16.773438 2.347656 16.003906 C 2.195312 15.234375 2.121094 14.457031 2.121094 13.671875 C 2.121094 12.886719 2.195312 12.105469 2.347656 11.335938 C 2.503906 10.566406 2.730469 9.816406 3.03125 9.09375 C 3.332031 8.367188 3.699219 7.675781 4.136719 7.023438 C 4.570312 6.371094 5.066406 5.765625 5.625 5.210938 C 6.179688 4.65625 6.78125 4.160156 7.4375 3.722656 C 8.089844 3.285156 8.777344 2.917969 9.503906 2.617188 C 10.230469 2.316406 10.976562 2.089844 11.75 1.9375 C 12.519531 1.785156 13.296875 1.707031 14.082031 1.707031 C 14.867188 1.707031 15.644531 1.785156 16.417969 1.9375 C 17.1875 2.089844 17.933594 2.316406 18.660156 2.617188 C 19.386719 2.917969 20.074219 3.285156 20.730469 3.722656 C 21.382812 4.160156 21.988281 4.65625 22.542969 5.210938 C 23.097656 5.765625 23.59375 6.371094 24.03125 7.023438 C 24.464844 7.675781 24.835938 8.367188 25.136719 9.09375 C 25.4375 9.816406 25.664062 10.566406 25.816406 11.335938 C 25.96875 12.105469 26.046875 12.886719 26.046875 13.671875 Z M 26.046875 13.671875 " fill-opacity="1" fill-rule="nonzero"/><g clip-path="url(#e48bfba4d1)"><path fill="#fbd113" d="M 24.585938 4.957031 C 24.242188 4.566406 23.878906 4.195312 23.496094 3.847656 C 23.109375 3.496094 22.707031 3.171875 22.285156 2.867188 C 21.867188 2.5625 21.429688 2.285156 20.976562 2.03125 C 20.523438 1.777344 20.058594 1.546875 19.578125 1.347656 C 19.101562 1.144531 18.609375 0.972656 18.113281 0.824219 C 17.613281 0.679688 17.109375 0.5625 16.597656 0.472656 C 16.085938 0.382812 15.570312 0.324219 15.054688 0.292969 C 14.535156 0.261719 14.015625 0.261719 13.496094 0.289062 C 12.980469 0.316406 12.464844 0.375 11.953125 0.460938 C 11.4375 0.546875 10.933594 0.664062 10.433594 0.808594 C 9.9375 0.949219 9.445312 1.121094 8.96875 1.320312 C 8.488281 1.519531 8.019531 1.746094 7.566406 2 C 7.113281 2.25 6.675781 2.527344 6.25 2.828125 C 5.828125 3.128906 5.425781 3.453125 5.039062 3.800781 C 4.652344 4.148438 4.285156 4.519531 3.941406 4.90625 C 3.597656 5.296875 3.277344 5.703125 2.980469 6.128906 C 2.667969 6.570312 2.382812 7.03125 2.125 7.503906 C 1.144531 9.324219 0.605469 11.265625 0.503906 13.332031 C 0.496094 13.5625 0.488281 13.796875 0.488281 14.03125 C 0.488281 14.585938 0.519531 15.136719 0.585938 15.6875 C 0.652344 16.238281 0.753906 16.78125 0.886719 17.320312 C 1.019531 17.859375 1.183594 18.386719 1.378906 18.90625 C 1.574219 19.421875 1.800781 19.929688 2.058594 20.417969 C 2.316406 20.910156 2.601562 21.382812 2.917969 21.839844 C 3.230469 22.296875 3.570312 22.734375 3.9375 23.148438 C 4.304688 23.5625 4.695312 23.957031 5.109375 24.324219 C 5.527344 24.691406 5.960938 25.035156 6.417969 25.347656 C 6.871094 25.664062 7.34375 25.953125 7.835938 26.210938 C 8.328125 26.46875 8.832031 26.695312 9.347656 26.894531 C 9.867188 27.089844 10.394531 27.257812 10.933594 27.390625 C 11.46875 27.523438 12.015625 27.625 12.566406 27.691406 C 13.113281 27.761719 13.667969 27.792969 14.222656 27.796875 C 14.777344 27.796875 15.328125 27.765625 15.878906 27.699219 C 16.429688 27.632812 16.972656 27.535156 17.511719 27.402344 C 18.050781 27.273438 18.578125 27.109375 19.097656 26.914062 C 19.617188 26.71875 20.121094 26.492188 20.613281 26.234375 C 21.105469 25.980469 21.578125 25.695312 22.035156 25.382812 C 22.492188 25.066406 22.929688 24.726562 23.347656 24.359375 C 23.761719 23.996094 24.15625 23.605469 24.523438 23.191406 C 24.890625 22.777344 25.234375 22.34375 25.550781 21.886719 C 25.867188 21.433594 26.15625 20.960938 26.414062 20.46875 C 26.671875 19.980469 26.902344 19.476562 27.101562 18.957031 C 27.300781 18.441406 27.464844 17.914062 27.601562 17.375 C 27.734375 16.835938 27.835938 16.292969 27.90625 15.742188 C 27.972656 15.195312 28.011719 14.640625 28.011719 14.085938 C 28.015625 13.53125 27.984375 12.980469 27.917969 12.429688 C 27.855469 11.878906 27.757812 11.335938 27.625 10.796875 C 27.496094 10.257812 27.332031 9.726562 27.136719 9.207031 C 26.945312 8.691406 26.71875 8.183594 26.464844 7.691406 C 26.207031 7.199219 25.925781 6.726562 25.613281 6.269531 C 25.300781 5.808594 24.960938 5.371094 24.59375 4.957031 Z M 9.652344 15.929688 C 10.816406 16.746094 11.902344 17.234375 13.027344 17.417969 L 13.027344 15.234375 C 10.105469 14.566406 8.617188 13.566406 8.617188 11.316406 L 8.617188 11.28125 C 8.617188 9.140625 10.179688 7.652344 12.957031 7.453125 L 12.957031 6.417969 L 14.84375 6.417969 L 14.84375 7.507812 C 16.238281 7.652344 17.515625 8.125 18.671875 8.921875 L 17.183594 11.351562 C 16.4375 10.84375 15.628906 10.484375 14.75 10.273438 L 14.75 12.378906 C 17.628906 13.050781 19.085938 14.085938 19.085938 16.335938 L 19.085938 16.371094 C 19.085938 18.585938 17.382812 19.945312 14.804688 20.183594 L 14.804688 21.960938 L 12.921875 21.960938 L 12.921875 20.132812 C 11.128906 19.960938 9.496094 19.363281 8.023438 18.335938 Z M 9.652344 15.929688 " fill-opacity="1" fill-rule="nonzero"/></g><path fill="#fbd113" d="M 15.949219 16.597656 L 15.949219 16.5625 C 15.949219 16.070312 15.675781 15.796875 14.734375 15.527344 L 14.734375 17.523438 C 15.570312 17.433594 15.949219 17.121094 15.949219 16.597656 Z M 15.949219 16.597656 " fill-opacity="1" fill-rule="nonzero"/><path fill="#fbd113" d="M 13.046875 10.101562 C 12.15625 10.175781 11.8125 10.539062 11.8125 11.011719 L 11.8125 11.046875 C 11.8125 11.515625 12.066406 11.789062 13.046875 12.0625 Z M 13.046875 10.101562 " fill-opacity="1" fill-rule="nonzero"/></svg>