<svg xmlns="http://www.w3.org/2000/svg" xmlns:xlink="http://www.w3.org/1999/xlink" width="40" zoomAndPan="magnify" viewBox="0 0 30 30.000001" height="40" preserveAspectRatio="xMidYMid meet" version="1.0"><defs><g/><clipPath id="95df33f265"><path d="M 0.484375 0 L 29.515625 0 L 29.515625 29.03125 L 0.484375 29.03125 Z M 0.484375 0 " clip-rule="nonzero"/></clipPath></defs><g fill="#ffffff" fill-opacity="1"><g transform="translate(9.984564, 19.838709)"><g><path d="M 2.417969 -9.363281 L 0.988281 -11.824219 L 8.917969 -16.699219 L 8.917969 -0.0390625 L 4.875 0.3125 L 4.875 -10.625 Z M 2.417969 -9.363281 "/></g></g></g><g clip-path="url(#95df33f265)"><path fill="#fbd113" d="M 29.515625 14.515625 C 29.515625 15.46875 29.421875 16.414062 29.238281 17.347656 C 29.050781 18.28125 28.777344 19.191406 28.410156 20.070312 C 28.046875 20.953125 27.597656 21.789062 27.070312 22.582031 C 26.539062 23.375 25.9375 24.105469 25.265625 24.78125 C 24.589844 25.453125 23.855469 26.054688 23.066406 26.585938 C 22.273438 27.117188 21.4375 27.5625 20.554688 27.925781 C 19.675781 28.292969 18.765625 28.566406 17.832031 28.753906 C 16.898438 28.9375 15.953125 29.03125 15 29.03125 C 14.046875 29.03125 13.101562 28.9375 12.167969 28.753906 C 11.234375 28.566406 10.324219 28.292969 9.445312 27.925781 C 8.5625 27.5625 7.726562 27.117188 6.933594 26.585938 C 6.144531 26.054688 5.410156 25.453125 4.734375 24.78125 C 4.0625 24.105469 3.460938 23.375 2.929688 22.582031 C 2.402344 21.789062 1.953125 20.953125 1.589844 20.070312 C 1.222656 19.191406 0.949219 18.28125 0.761719 17.347656 C 0.578125 16.414062 0.484375 15.46875 0.484375 14.515625 C 0.484375 13.5625 0.578125 12.617188 0.761719 11.683594 C 0.949219 10.75 1.222656 9.839844 1.589844 8.960938 C 1.953125 8.082031 2.402344 7.242188 2.929688 6.453125 C 3.460938 5.660156 4.0625 4.925781 4.734375 4.25 C 5.410156 3.578125 6.144531 2.976562 6.933594 2.445312 C 7.726562 1.917969 8.5625 1.46875 9.445312 1.105469 C 10.324219 0.738281 11.234375 0.464844 12.167969 0.277344 C 13.101562 0.09375 14.046875 0 15 0 C 15.953125 0 16.898438 0.09375 17.832031 0.277344 C 18.765625 0.464844 19.675781 0.738281 20.554688 1.105469 C 21.4375 1.46875 22.273438 1.917969 23.066406 2.445312 C 23.855469 2.976562 24.589844 3.578125 25.265625 4.25 C 25.9375 4.925781 26.539062 5.660156 27.070312 6.453125 C 27.597656 7.242188 28.046875 8.082031 28.410156 8.960938 C 28.777344 9.839844 29.050781 10.75 29.238281 11.683594 C 29.421875 12.617188 29.515625 13.5625 29.515625 14.515625 Z M 29.515625 14.515625 " fill-opacity="1" fill-rule="nonzero"/></g><path fill="#000000" d="M 16.167969 14.644531 C 15.535156 14.011719 14.503906 14.011719 13.871094 14.644531 C 13.789062 14.726562 13.65625 14.726562 13.574219 14.644531 C 13.492188 14.5625 13.492188 14.433594 13.574219 14.351562 C 14.371094 13.550781 15.667969 13.550781 16.464844 14.351562 C 16.546875 14.433594 16.546875 14.5625 16.464844 14.644531 C 16.425781 14.6875 16.371094 14.707031 16.316406 14.707031 C 16.265625 14.707031 16.210938 14.6875 16.167969 14.644531 Z M 15.019531 12.875 C 13.878906 12.875 12.949219 13.804688 12.949219 14.945312 C 12.949219 16.089844 13.878906 17.019531 15.019531 17.019531 C 16.164062 17.019531 17.09375 16.089844 17.09375 14.945312 C 17.09375 13.804688 16.164062 12.875 15.019531 12.875 Z M 14.117188 15.125 C 14.035156 15.207031 14.035156 15.339844 14.117188 15.421875 C 14.15625 15.464844 14.210938 15.484375 14.265625 15.484375 C 14.316406 15.484375 14.371094 15.464844 14.414062 15.421875 C 14.746094 15.085938 15.292969 15.085938 15.628906 15.421875 C 15.710938 15.503906 15.84375 15.503906 15.925781 15.421875 C 16.007812 15.339844 16.007812 15.207031 15.925781 15.125 C 15.425781 14.625 14.613281 14.625 14.117188 15.125 Z M 15.230469 15.933594 C 15.230469 15.988281 15.207031 16.042969 15.167969 16.082031 C 15.128906 16.121094 15.074219 16.140625 15.019531 16.140625 C 14.964844 16.140625 14.910156 16.121094 14.871094 16.082031 C 14.832031 16.042969 14.808594 15.988281 14.808594 15.933594 C 14.808594 15.917969 14.8125 15.90625 14.816406 15.890625 C 14.816406 15.878906 14.820312 15.863281 14.828125 15.851562 C 14.832031 15.839844 14.839844 15.828125 14.847656 15.816406 C 14.855469 15.804688 14.863281 15.792969 14.871094 15.785156 C 14.882812 15.773438 14.894531 15.765625 14.90625 15.757812 C 14.917969 15.75 14.929688 15.742188 14.941406 15.738281 C 14.953125 15.734375 14.96875 15.730469 14.980469 15.726562 C 15.007812 15.71875 15.035156 15.71875 15.0625 15.726562 C 15.074219 15.726562 15.089844 15.734375 15.101562 15.738281 C 15.113281 15.742188 15.125 15.75 15.136719 15.757812 C 15.148438 15.765625 15.160156 15.773438 15.171875 15.785156 C 15.179688 15.792969 15.1875 15.804688 15.195312 15.816406 C 15.203125 15.828125 15.210938 15.839844 15.214844 15.851562 C 15.222656 15.863281 15.226562 15.878906 15.226562 15.890625 C 15.230469 15.90625 15.230469 15.917969 15.230469 15.933594 Z M 15.230469 15.933594 " fill-opacity="1" fill-rule="evenodd"/><path fill="#000000" d="M 15.019531 12.457031 C 16.394531 12.457031 17.511719 13.574219 17.511719 14.949219 C 17.511719 16.320312 16.394531 17.4375 15.019531 17.4375 C 13.648438 17.4375 12.53125 16.320312 12.53125 14.949219 C 12.53125 13.574219 13.648438 12.457031 15.019531 12.457031 Z M 15 11.746094 C 13.207031 11.746094 11.359375 11.914062 9.65625 12.234375 C 9.597656 12.699219 9.5625 13.222656 9.5625 13.726562 C 9.5625 14.175781 9.589844 14.699219 9.640625 15.242188 C 11.726562 16.042969 13.199219 17.960938 13.355469 20.078125 C 13.859375 20.1875 14.371094 20.246094 14.882812 20.246094 C 15.414062 20.246094 16.019531 20.1875 16.648438 20.074219 C 16.804688 17.957031 18.273438 16.046875 20.363281 15.242188 C 20.414062 14.699219 20.4375 14.175781 20.4375 13.726562 C 20.4375 13.222656 20.40625 12.699219 20.347656 12.234375 C 18.644531 11.914062 16.796875 11.746094 15 11.746094 Z M 15 11.746094 " fill-opacity="1" fill-rule="evenodd"/><path fill="#000000" d="M 20.859375 13.726562 C 20.859375 14.136719 20.835938 14.605469 20.796875 15.097656 C 21.265625 14.957031 21.746094 14.878906 22.226562 14.859375 C 22.234375 14.746094 22.234375 14.632812 22.234375 14.515625 C 22.234375 13.855469 22.144531 13.210938 21.980469 12.601562 C 21.585938 12.496094 21.1875 12.402344 20.78125 12.320312 C 20.832031 12.765625 20.859375 13.253906 20.859375 13.726562 Z M 20.859375 13.726562 " fill-opacity="1" fill-rule="evenodd"/><path fill="#000000" d="M 22.65625 14.515625 C 22.65625 14.691406 22.648438 14.867188 22.636719 15.039062 C 22.636719 15.046875 22.636719 15.054688 22.636719 15.066406 C 22.636719 15.085938 22.636719 15.105469 22.628906 15.121094 C 22.371094 18.410156 20.023438 21.121094 16.917969 21.929688 C 16.902344 21.933594 16.886719 21.9375 16.867188 21.941406 C 16.269531 22.089844 15.644531 22.171875 15 22.171875 C 14.351562 22.171875 13.726562 22.089844 13.128906 21.941406 C 13.117188 21.9375 13.101562 21.933594 13.089844 21.929688 C 9.964844 21.125 7.609375 18.394531 7.363281 15.082031 L 7.363281 15.078125 C 7.351562 14.890625 7.34375 14.703125 7.34375 14.515625 C 7.34375 13.777344 7.449219 13.058594 7.644531 12.382812 C 7.648438 12.367188 7.652344 12.351562 7.65625 12.339844 C 8.597656 9.175781 11.53125 6.859375 14.996094 6.859375 C 18.460938 6.859375 21.390625 9.171875 22.335938 12.332031 C 22.347656 12.359375 22.355469 12.386719 22.359375 12.414062 C 22.554688 13.082031 22.65625 13.789062 22.65625 14.515625 Z M 15 5.785156 C 10.1875 5.785156 6.269531 9.703125 6.269531 14.515625 C 6.269531 19.328125 10.1875 23.246094 15 23.246094 C 19.8125 23.246094 23.730469 19.328125 23.730469 14.515625 C 23.730469 9.703125 19.8125 5.785156 15 5.785156 Z M 15 5.785156 " fill-opacity="1" fill-rule="evenodd"/><path fill="#000000" d="M 14.882812 20.664062 C 14.375 20.664062 13.867188 20.613281 13.371094 20.507812 L 13.371094 21.566406 C 13.894531 21.6875 14.441406 21.753906 15 21.753906 C 15.5625 21.753906 16.109375 21.6875 16.632812 21.566406 L 16.632812 20.503906 C 16.011719 20.609375 15.410156 20.664062 14.882812 20.664062 Z M 14.882812 20.664062 " fill-opacity="1" fill-rule="evenodd"/><path fill="#000000" d="M 8.023438 12.589844 C 7.855469 13.203125 7.761719 13.847656 7.761719 14.515625 C 7.761719 14.632812 7.765625 14.746094 7.769531 14.859375 C 8.257812 14.875 8.738281 14.957031 9.207031 15.09375 C 9.164062 14.605469 9.144531 14.136719 9.144531 13.726562 C 9.144531 13.253906 9.171875 12.765625 9.222656 12.316406 C 8.773438 12.410156 8.371094 12.503906 8.023438 12.589844 Z M 8.023438 12.589844 " fill-opacity="1" fill-rule="evenodd"/></svg>