<svg xmlns="http://www.w3.org/2000/svg" xmlns:xlink="http://www.w3.org/1999/xlink" width="600" zoomAndPan="magnify" viewBox="0 0 450 449.999984" height="600" preserveAspectRatio="xMidYMid meet" version="1.0"><defs><clipPath id="24d2988a8f"><path d="M 32.515625 32.515625 L 245 32.515625 L 245 222 L 32.515625 222 Z M 32.515625 32.515625 " clip-rule="nonzero"/></clipPath><clipPath id="3419338685"><path d="M 32.515625 205 L 222 205 L 222 417.265625 L 32.515625 417.265625 Z M 32.515625 205 " clip-rule="nonzero"/></clipPath><clipPath id="88e5cc92dc"><path d="M 205 227 L 417.265625 227 L 417.265625 417.265625 L 205 417.265625 Z M 205 227 " clip-rule="nonzero"/></clipPath><clipPath id="ad010f1f69"><path d="M 227 32.515625 L 417.265625 32.515625 L 417.265625 245 L 227 245 Z M 227 32.515625 " clip-rule="nonzero"/></clipPath></defs><path stroke-linecap="butt" transform="matrix(0.75, 0, 0, 0.75, 60.677425, 143.951605)" fill="none" stroke-linejoin="miter" d="M -0.0021917 2.002027 L 191.997823 2.002027 " stroke="#000000" stroke-width="4" stroke-opacity="1" stroke-miterlimit="4"/><g clip-path="url(#24d2988a8f)"><path fill="#00cee8" d="M 243.617188 90.15625 C 242.816406 87.863281 241.113281 85.394531 238.542969 84.96875 C 236.121094 84.570312 233.972656 86.460938 232.628906 88.34375 C 229.300781 92.890625 221.960938 90.457031 221.960938 84.820312 L 221.960938 39.550781 C 221.960938 39.09375 221.914062 38.640625 221.828125 38.191406 C 221.738281 37.746094 221.605469 37.308594 221.429688 36.886719 C 221.257812 36.464844 221.042969 36.0625 220.789062 35.683594 C 220.535156 35.304688 220.25 34.953125 219.925781 34.628906 C 219.601562 34.304688 219.253906 34.015625 218.875 33.761719 C 218.492188 33.507812 218.09375 33.292969 217.671875 33.117188 C 217.25 32.941406 216.816406 32.808594 216.367188 32.71875 C 215.917969 32.628906 215.46875 32.582031 215.011719 32.582031 C 214.890625 32.582031 214.769531 32.582031 214.644531 32.589844 C 211.710938 32.746094 208.78125 32.96875 205.859375 33.257812 C 202.933594 33.546875 200.019531 33.90625 197.113281 34.328125 C 194.207031 34.753906 191.308594 35.242188 188.425781 35.796875 C 185.539062 36.355469 182.667969 36.976562 179.8125 37.664062 C 176.957031 38.351562 174.117188 39.105469 171.292969 39.921875 C 168.472656 40.738281 165.671875 41.621094 162.890625 42.566406 C 160.109375 43.511719 157.347656 44.519531 154.613281 45.59375 C 151.878906 46.664062 149.167969 47.800781 146.484375 48.996094 C 143.800781 50.191406 141.148438 51.449219 138.519531 52.765625 C 135.894531 54.082031 133.300781 55.460938 130.738281 56.894531 C 128.175781 58.332031 125.644531 59.828125 123.152344 61.378906 C 120.65625 62.929688 118.199219 64.539062 115.777344 66.203125 C 113.355469 67.867188 110.976562 69.585938 108.632812 71.359375 C 106.289062 73.132812 103.988281 74.960938 101.730469 76.839844 C 99.472656 78.71875 97.257812 80.648438 95.085938 82.628906 C 92.917969 84.609375 90.792969 86.636719 88.714844 88.714844 C 86.636719 90.792969 84.609375 92.917969 82.628906 95.085938 C 80.648438 97.257812 78.71875 99.472656 76.839844 101.730469 C 74.960938 103.988281 73.136719 106.289062 71.363281 108.632812 C 69.589844 110.972656 67.867188 113.355469 66.203125 115.777344 C 64.539062 118.199219 62.929688 120.65625 61.378906 123.148438 C 59.828125 125.644531 58.332031 128.171875 56.898438 130.738281 C 55.460938 133.300781 54.082031 135.894531 52.765625 138.519531 C 51.449219 141.144531 50.191406 143.800781 48.996094 146.484375 C 47.800781 149.167969 46.664062 151.878906 45.59375 154.613281 C 44.523438 157.347656 43.511719 160.105469 42.566406 162.886719 C 41.621094 165.671875 40.738281 168.472656 39.921875 171.292969 C 39.105469 174.117188 38.351562 176.957031 37.664062 179.8125 C 36.976562 182.667969 36.355469 185.539062 35.800781 188.421875 C 35.242188 191.308594 34.753906 194.203125 34.328125 197.113281 C 33.90625 200.019531 33.550781 202.933594 33.257812 205.859375 C 32.96875 208.78125 32.746094 211.710938 32.589844 214.644531 C 32.566406 215.117188 32.589844 215.585938 32.664062 216.050781 C 32.734375 216.519531 32.851562 216.972656 33.015625 217.417969 C 33.179688 217.859375 33.386719 218.28125 33.636719 218.679688 C 33.886719 219.082031 34.175781 219.453125 34.5 219.796875 C 34.824219 220.136719 35.183594 220.441406 35.570312 220.710938 C 35.957031 220.980469 36.367188 221.210938 36.800781 221.394531 C 37.238281 221.582031 37.683594 221.722656 38.148438 221.816406 C 38.609375 221.914062 39.078125 221.960938 39.550781 221.960938 L 85.574219 221.960938 C 85.625 221.820312 85.628906 221.679688 85.582031 221.539062 C 85.535156 221.398438 85.453125 221.289062 85.328125 221.207031 C 81.261719 218.3125 79.273438 214.335938 79.933594 210.34375 C 80.601562 206.308594 83.792969 202.917969 88.46875 201.28125 C 90.53125 200.566406 92.652344 200.210938 94.835938 200.210938 C 97.019531 200.210938 99.140625 200.566406 101.203125 201.28125 C 105.882812 202.921875 109.074219 206.308594 109.738281 210.34375 C 110.398438 214.339844 108.410156 218.316406 104.285156 221.246094 C 104.050781 221.441406 103.988281 221.675781 104.097656 221.960938 L 150.121094 221.960938 C 150.539062 221.960938 150.953125 221.921875 151.363281 221.847656 C 151.773438 221.773438 152.175781 221.660156 152.566406 221.515625 C 152.957031 221.367188 153.332031 221.1875 153.691406 220.972656 C 154.046875 220.757812 154.382812 220.515625 154.699219 220.238281 C 155.011719 219.964844 155.300781 219.664062 155.558594 219.335938 C 155.820312 219.011719 156.046875 218.664062 156.246094 218.296875 C 156.445312 217.925781 156.605469 217.546875 156.734375 217.148438 C 156.863281 216.75 156.957031 216.34375 157.011719 215.929688 C 157.253906 214.078125 157.570312 212.242188 157.964844 210.414062 C 158.359375 208.589844 158.828125 206.78125 159.367188 204.996094 C 159.910156 203.207031 160.523438 201.445312 161.207031 199.707031 C 161.894531 197.972656 162.648438 196.265625 163.476562 194.589844 C 164.300781 192.914062 165.195312 191.277344 166.152344 189.671875 C 167.113281 188.070312 168.136719 186.511719 169.222656 184.992188 C 170.3125 183.476562 171.460938 182.003906 172.667969 180.578125 C 173.875 179.15625 175.140625 177.78125 176.460938 176.460938 C 177.78125 175.140625 179.15625 173.875 180.578125 172.667969 C 182.003906 171.460938 183.472656 170.3125 184.992188 169.226562 C 186.511719 168.136719 188.070312 167.113281 189.671875 166.152344 C 191.273438 165.195312 192.914062 164.300781 194.589844 163.476562 C 196.265625 162.648438 197.96875 161.894531 199.707031 161.207031 C 201.445312 160.523438 203.207031 159.910156 204.996094 159.367188 C 206.78125 158.828125 208.589844 158.359375 210.414062 157.964844 C 212.242188 157.574219 214.078125 157.253906 215.929688 157.011719 C 216.34375 156.957031 216.75 156.863281 217.148438 156.734375 C 217.542969 156.605469 217.925781 156.445312 218.292969 156.246094 C 218.664062 156.050781 219.007812 155.820312 219.335938 155.558594 C 219.664062 155.300781 219.964844 155.011719 220.238281 154.699219 C 220.511719 154.386719 220.757812 154.046875 220.972656 153.691406 C 221.1875 153.332031 221.367188 152.957031 221.515625 152.566406 C 221.660156 152.175781 221.773438 151.777344 221.847656 151.363281 C 221.921875 150.953125 221.960938 150.539062 221.960938 150.121094 L 221.960938 104.851562 C 221.960938 99.21875 229.300781 96.78125 232.628906 101.328125 C 233.972656 103.210938 236.121094 105.101562 238.542969 104.703125 C 241.113281 104.277344 242.816406 101.808594 243.617188 99.515625 C 244.144531 98 244.40625 96.441406 244.40625 94.835938 C 244.40625 93.230469 244.144531 91.671875 243.617188 90.15625 Z M 243.617188 90.15625 " fill-opacity="1" fill-rule="nonzero"/></g><g clip-path="url(#3419338685)"><path fill="#fe2635" d="M 90.15625 206.101562 C 87.863281 206.902344 85.394531 208.605469 84.96875 211.175781 C 84.570312 213.597656 86.460938 215.746094 88.34375 217.089844 C 92.890625 220.417969 90.457031 227.757812 84.820312 227.757812 L 39.550781 227.757812 C 39.09375 227.757812 38.640625 227.804688 38.191406 227.890625 C 37.746094 227.980469 37.308594 228.113281 36.886719 228.285156 C 36.464844 228.460938 36.0625 228.675781 35.683594 228.929688 C 35.304688 229.183594 34.953125 229.46875 34.628906 229.792969 C 34.304688 230.113281 34.015625 230.464844 33.761719 230.84375 C 33.507812 231.222656 33.292969 231.625 33.117188 232.046875 C 32.941406 232.46875 32.808594 232.902344 32.71875 233.351562 C 32.628906 233.800781 32.582031 234.25 32.582031 234.707031 C 32.582031 234.828125 32.582031 234.949219 32.589844 235.074219 C 32.746094 238.007812 32.96875 240.933594 33.257812 243.859375 C 33.546875 246.78125 33.90625 249.699219 34.328125 252.605469 C 34.753906 255.511719 35.242188 258.410156 35.796875 261.292969 C 36.355469 264.179688 36.976562 267.050781 37.664062 269.90625 C 38.351562 272.761719 39.105469 275.601562 39.921875 278.421875 C 40.738281 281.246094 41.621094 284.046875 42.566406 286.828125 C 43.511719 289.609375 44.519531 292.367188 45.59375 295.105469 C 46.664062 297.839844 47.800781 300.550781 48.996094 303.234375 C 50.191406 305.917969 51.449219 308.570312 52.765625 311.199219 C 54.082031 313.824219 55.460938 316.417969 56.894531 318.980469 C 58.332031 321.542969 59.828125 324.074219 61.378906 326.566406 C 62.929688 329.0625 64.539062 331.519531 66.203125 333.941406 C 67.867188 336.363281 69.585938 338.742188 71.359375 341.085938 C 73.132812 343.429688 74.960938 345.726562 76.839844 347.988281 C 78.71875 350.246094 80.648438 352.460938 82.628906 354.628906 C 84.609375 356.800781 86.636719 358.925781 88.714844 361.003906 C 90.792969 363.078125 92.917969 365.109375 95.085938 367.089844 C 97.257812 369.070312 99.472656 371 101.730469 372.878906 C 103.988281 374.757812 106.289062 376.582031 108.632812 378.355469 C 110.972656 380.128906 113.355469 381.847656 115.777344 383.515625 C 118.199219 385.179688 120.65625 386.785156 123.148438 388.339844 C 125.644531 389.890625 128.171875 391.386719 130.738281 392.820312 C 133.300781 394.257812 135.894531 395.632812 138.519531 396.953125 C 141.144531 398.269531 143.800781 399.527344 146.484375 400.722656 C 149.167969 401.917969 151.878906 403.050781 154.613281 404.125 C 157.347656 405.195312 160.105469 406.207031 162.886719 407.152344 C 165.671875 408.097656 168.472656 408.980469 171.292969 409.796875 C 174.117188 410.613281 176.957031 411.367188 179.8125 412.054688 C 182.667969 412.742188 185.539062 413.363281 188.421875 413.917969 C 191.308594 414.476562 194.203125 414.964844 197.113281 415.386719 C 200.019531 415.8125 202.933594 416.167969 205.859375 416.457031 C 208.78125 416.75 211.710938 416.972656 214.644531 417.128906 C 215.117188 417.152344 215.585938 417.128906 216.050781 417.054688 C 216.519531 416.984375 216.972656 416.867188 217.417969 416.703125 C 217.859375 416.539062 218.28125 416.332031 218.679688 416.082031 C 219.082031 415.832031 219.453125 415.542969 219.796875 415.21875 C 220.136719 414.890625 220.441406 414.535156 220.710938 414.148438 C 220.980469 413.761719 221.210938 413.351562 221.394531 412.914062 C 221.582031 412.480469 221.722656 412.035156 221.816406 411.570312 C 221.914062 411.109375 221.960938 410.640625 221.960938 410.167969 L 221.960938 364.144531 C 221.820312 364.09375 221.679688 364.089844 221.539062 364.136719 C 221.398438 364.183594 221.289062 364.265625 221.207031 364.386719 C 218.3125 368.457031 214.335938 370.441406 210.34375 369.78125 C 206.308594 369.117188 202.921875 365.925781 201.28125 361.246094 C 200.566406 359.1875 200.210938 357.0625 200.210938 354.882812 C 200.210938 352.699219 200.566406 350.578125 201.28125 348.515625 C 202.921875 343.835938 206.308594 340.644531 210.34375 339.980469 C 214.339844 339.320312 218.316406 341.308594 221.246094 345.433594 C 221.441406 345.667969 221.675781 345.730469 221.960938 345.621094 L 221.960938 299.597656 C 221.960938 299.179688 221.921875 298.765625 221.847656 298.355469 C 221.773438 297.941406 221.660156 297.542969 221.515625 297.152344 C 221.367188 296.761719 221.1875 296.386719 220.972656 296.027344 C 220.757812 295.667969 220.515625 295.332031 220.238281 295.019531 C 219.964844 294.707031 219.664062 294.417969 219.335938 294.160156 C 219.011719 293.898438 218.664062 293.667969 218.296875 293.472656 C 217.925781 293.273438 217.546875 293.113281 217.148438 292.984375 C 216.75 292.855469 216.34375 292.761719 215.929688 292.707031 C 214.078125 292.464844 212.242188 292.144531 210.414062 291.753906 C 208.589844 291.359375 206.78125 290.890625 204.996094 290.351562 C 203.207031 289.808594 201.445312 289.195312 199.707031 288.507812 C 197.972656 287.824219 196.265625 287.066406 194.589844 286.242188 C 192.914062 285.417969 191.277344 284.523438 189.671875 283.566406 C 188.070312 282.605469 186.511719 281.582031 184.992188 280.492188 C 183.476562 279.40625 182.003906 278.257812 180.578125 277.050781 C 179.15625 275.839844 177.78125 274.578125 176.460938 273.257812 C 175.140625 271.9375 173.875 270.5625 172.667969 269.140625 C 171.460938 267.714844 170.3125 266.242188 169.226562 264.726562 C 168.136719 263.207031 167.113281 261.648438 166.152344 260.046875 C 165.195312 258.441406 164.300781 256.804688 163.476562 255.128906 C 162.648438 253.453125 161.894531 251.746094 161.207031 250.011719 C 160.523438 248.273438 159.910156 246.511719 159.367188 244.722656 C 158.828125 242.9375 158.359375 241.128906 157.964844 239.304688 C 157.574219 237.476562 157.253906 235.640625 157.011719 233.785156 C 156.957031 233.375 156.863281 232.96875 156.734375 232.570312 C 156.605469 232.171875 156.445312 231.792969 156.246094 231.421875 C 156.050781 231.054688 155.820312 230.707031 155.558594 230.382812 C 155.300781 230.054688 155.011719 229.753906 154.699219 229.480469 C 154.386719 229.203125 154.046875 228.960938 153.691406 228.746094 C 153.332031 228.53125 152.957031 228.351562 152.566406 228.203125 C 152.175781 228.058594 151.777344 227.945312 151.363281 227.871094 C 150.953125 227.796875 150.539062 227.757812 150.121094 227.757812 L 104.851562 227.757812 C 99.21875 227.757812 96.78125 220.417969 101.328125 217.089844 C 103.210938 215.746094 105.101562 213.597656 104.703125 211.175781 C 104.277344 208.605469 101.808594 206.902344 99.515625 206.101562 C 98 205.574219 96.441406 205.3125 94.835938 205.3125 C 93.230469 205.3125 91.671875 205.574219 90.15625 206.101562 Z M 90.15625 206.101562 " fill-opacity="1" fill-rule="nonzero"/></g><g clip-path="url(#88e5cc92dc)"><path fill="#03a9f4" d="M 206.101562 359.5625 C 206.902344 361.855469 208.605469 364.324219 211.175781 364.746094 C 213.597656 365.148438 215.746094 363.257812 217.089844 361.371094 C 220.417969 356.828125 227.757812 359.261719 227.757812 364.898438 L 227.757812 410.167969 C 227.757812 410.625 227.804688 411.078125 227.890625 411.527344 C 227.980469 411.972656 228.113281 412.410156 228.285156 412.832031 C 228.460938 413.253906 228.675781 413.65625 228.929688 414.035156 C 229.179688 414.414062 229.46875 414.765625 229.792969 415.089844 C 230.113281 415.414062 230.464844 415.703125 230.84375 415.957031 C 231.222656 416.210938 231.625 416.425781 232.046875 416.601562 C 232.46875 416.777344 232.902344 416.910156 233.351562 417 C 233.800781 417.089844 234.25 417.136719 234.707031 417.136719 C 234.828125 417.136719 234.949219 417.132812 235.074219 417.128906 C 238.007812 416.972656 240.933594 416.75 243.859375 416.460938 C 246.78125 416.167969 249.699219 415.8125 252.605469 415.390625 C 255.511719 414.964844 258.410156 414.476562 261.292969 413.917969 C 264.179688 413.363281 267.050781 412.742188 269.90625 412.054688 C 272.761719 411.367188 275.601562 410.613281 278.421875 409.796875 C 281.246094 408.980469 284.046875 408.097656 286.828125 407.152344 C 289.609375 406.207031 292.367188 405.199219 295.105469 404.125 C 297.839844 403.054688 300.550781 401.917969 303.234375 400.722656 C 305.917969 399.527344 308.570312 398.269531 311.199219 396.953125 C 313.824219 395.636719 316.417969 394.257812 318.980469 392.820312 C 321.542969 391.386719 324.074219 389.890625 326.566406 388.339844 C 329.0625 386.789062 331.519531 385.179688 333.941406 383.515625 C 336.363281 381.851562 338.742188 380.128906 341.085938 378.355469 C 343.429688 376.582031 345.726562 374.757812 347.988281 372.878906 C 350.246094 371 352.460938 369.070312 354.628906 367.089844 C 356.800781 365.109375 358.925781 363.082031 361.003906 361.003906 C 363.078125 358.925781 365.109375 356.800781 367.089844 354.632812 C 369.070312 352.460938 371 350.246094 372.878906 347.988281 C 374.757812 345.730469 376.582031 343.429688 378.355469 341.085938 C 380.128906 338.742188 381.847656 336.363281 383.515625 333.941406 C 385.179688 331.519531 386.785156 329.0625 388.339844 326.566406 C 389.890625 324.074219 391.386719 321.542969 392.820312 318.980469 C 394.257812 316.417969 395.632812 313.824219 396.953125 311.199219 C 398.269531 308.570312 399.527344 305.917969 400.722656 303.234375 C 401.917969 300.550781 403.050781 297.839844 404.125 295.105469 C 405.195312 292.371094 406.207031 289.609375 407.152344 286.828125 C 408.097656 284.046875 408.980469 281.246094 409.796875 278.425781 C 410.613281 275.601562 411.367188 272.761719 412.054688 269.90625 C 412.742188 267.050781 413.363281 264.179688 413.917969 261.292969 C 414.476562 258.410156 414.964844 255.511719 415.386719 252.605469 C 415.8125 249.699219 416.167969 246.785156 416.457031 243.859375 C 416.75 240.9375 416.972656 238.007812 417.128906 235.074219 C 417.152344 234.601562 417.128906 234.132812 417.054688 233.664062 C 416.984375 233.199219 416.867188 232.746094 416.703125 232.300781 C 416.539062 231.859375 416.332031 231.4375 416.082031 231.035156 C 415.832031 230.636719 415.542969 230.265625 415.21875 229.921875 C 414.890625 229.582031 414.535156 229.273438 414.148438 229.003906 C 413.761719 228.734375 413.351562 228.507812 412.914062 228.320312 C 412.480469 228.136719 412.035156 227.996094 411.570312 227.902344 C 411.109375 227.804688 410.640625 227.757812 410.167969 227.757812 L 364.144531 227.757812 C 364.09375 227.898438 364.089844 228.035156 364.136719 228.175781 C 364.183594 228.316406 364.265625 228.429688 364.386719 228.511719 C 368.457031 231.40625 370.441406 235.378906 369.78125 239.375 C 369.117188 243.410156 365.925781 246.796875 361.246094 248.4375 C 359.1875 249.152344 357.0625 249.507812 354.882812 249.507812 C 352.699219 249.507812 350.578125 249.152344 348.515625 248.4375 C 343.835938 246.796875 340.644531 243.410156 339.980469 239.375 C 339.320312 235.378906 341.308594 231.402344 345.433594 228.472656 C 345.667969 228.277344 345.730469 228.042969 345.621094 227.757812 L 299.597656 227.757812 C 299.179688 227.757812 298.765625 227.796875 298.355469 227.871094 C 297.941406 227.945312 297.542969 228.054688 297.152344 228.203125 C 296.761719 228.351562 296.386719 228.53125 296.027344 228.746094 C 295.667969 228.960938 295.332031 229.203125 295.019531 229.480469 C 294.707031 229.753906 294.417969 230.054688 294.160156 230.382812 C 293.898438 230.707031 293.667969 231.054688 293.472656 231.421875 C 293.273438 231.789062 293.113281 232.171875 292.984375 232.570312 C 292.855469 232.96875 292.761719 233.371094 292.707031 233.785156 C 292.464844 235.636719 292.144531 237.476562 291.753906 239.304688 C 291.359375 241.128906 290.890625 242.933594 290.351562 244.722656 C 289.808594 246.511719 289.195312 248.273438 288.511719 250.007812 C 287.824219 251.746094 287.066406 253.453125 286.242188 255.128906 C 285.417969 256.804688 284.523438 258.441406 283.566406 260.042969 C 282.605469 261.648438 281.582031 263.207031 280.492188 264.726562 C 279.40625 266.242188 278.257812 267.714844 277.050781 269.140625 C 275.839844 270.5625 274.578125 271.933594 273.257812 273.257812 C 271.9375 274.578125 270.5625 275.839844 269.140625 277.050781 C 267.714844 278.257812 266.242188 279.40625 264.726562 280.492188 C 263.207031 281.582031 261.648438 282.605469 260.046875 283.5625 C 258.441406 284.523438 256.804688 285.417969 255.128906 286.242188 C 253.453125 287.066406 251.746094 287.824219 250.011719 288.507812 C 248.273438 289.195312 246.511719 289.808594 244.722656 290.351562 C 242.9375 290.890625 241.128906 291.359375 239.304688 291.753906 C 237.476562 292.144531 235.640625 292.464844 233.789062 292.707031 C 233.375 292.761719 232.96875 292.855469 232.570312 292.984375 C 232.171875 293.109375 231.792969 293.273438 231.421875 293.472656 C 231.054688 293.667969 230.707031 293.898438 230.382812 294.15625 C 230.054688 294.417969 229.753906 294.703125 229.480469 295.019531 C 229.203125 295.332031 228.960938 295.667969 228.746094 296.027344 C 228.53125 296.386719 228.351562 296.761719 228.203125 297.152344 C 228.058594 297.542969 227.945312 297.941406 227.871094 298.351562 C 227.796875 298.765625 227.757812 299.179688 227.757812 299.59375 L 227.757812 344.867188 C 227.757812 350.5 220.417969 352.9375 217.089844 348.390625 C 215.746094 346.503906 213.597656 344.617188 211.175781 345.015625 C 208.605469 345.441406 206.902344 347.910156 206.101562 350.203125 C 205.574219 351.71875 205.3125 353.277344 205.3125 354.882812 C 205.3125 356.484375 205.574219 358.046875 206.101562 359.5625 Z M 206.101562 359.5625 " fill-opacity="1" fill-rule="nonzero"/></g><g clip-path="url(#ad010f1f69)"><path fill="#ffd000" d="M 359.5625 243.617188 C 361.855469 242.816406 364.324219 241.113281 364.746094 238.542969 C 365.148438 236.121094 363.257812 233.972656 361.371094 232.628906 C 356.828125 229.300781 359.261719 221.960938 364.898438 221.960938 L 410.167969 221.960938 C 410.625 221.960938 411.078125 221.914062 411.527344 221.828125 C 411.972656 221.738281 412.410156 221.605469 412.832031 221.429688 C 413.253906 221.257812 413.65625 221.042969 414.035156 220.789062 C 414.414062 220.535156 414.765625 220.25 415.089844 219.925781 C 415.414062 219.601562 415.703125 219.253906 415.957031 218.871094 C 416.210938 218.492188 416.425781 218.09375 416.601562 217.671875 C 416.777344 217.25 416.910156 216.816406 417 216.367188 C 417.089844 215.917969 417.136719 215.46875 417.136719 215.011719 C 417.136719 214.890625 417.132812 214.769531 417.128906 214.644531 C 416.972656 211.710938 416.75 208.78125 416.460938 205.859375 C 416.167969 202.933594 415.8125 200.019531 415.390625 197.113281 C 414.964844 194.207031 414.476562 191.308594 413.917969 188.425781 C 413.363281 185.539062 412.742188 182.667969 412.054688 179.8125 C 411.367188 176.957031 410.613281 174.117188 409.796875 171.292969 C 408.980469 168.472656 408.097656 165.671875 407.152344 162.890625 C 406.207031 160.109375 405.199219 157.347656 404.125 154.613281 C 403.054688 151.878906 401.917969 149.167969 400.722656 146.484375 C 399.527344 143.800781 398.269531 141.148438 396.953125 138.519531 C 395.636719 135.894531 394.257812 133.300781 392.820312 130.738281 C 391.386719 128.175781 389.890625 125.644531 388.339844 123.152344 C 386.789062 120.65625 385.179688 118.199219 383.515625 115.777344 C 381.851562 113.355469 380.128906 110.976562 378.355469 108.632812 C 376.582031 106.289062 374.757812 103.988281 372.878906 101.730469 C 371 99.472656 369.070312 97.257812 367.089844 95.085938 C 365.109375 92.917969 363.082031 90.792969 361.003906 88.714844 C 358.925781 86.636719 356.800781 84.609375 354.632812 82.628906 C 352.460938 80.648438 350.246094 78.71875 347.988281 76.839844 C 345.730469 74.960938 343.429688 73.136719 341.085938 71.363281 C 338.742188 69.589844 336.363281 67.867188 333.941406 66.203125 C 331.519531 64.539062 329.0625 62.929688 326.566406 61.378906 C 324.074219 59.828125 321.542969 58.332031 318.980469 56.898438 C 316.417969 55.460938 313.824219 54.082031 311.199219 52.765625 C 308.570312 51.449219 305.917969 50.191406 303.234375 48.996094 C 300.550781 47.800781 297.839844 46.664062 295.105469 45.59375 C 292.371094 44.523438 289.609375 43.511719 286.828125 42.566406 C 284.046875 41.621094 281.246094 40.738281 278.425781 39.921875 C 275.601562 39.105469 272.761719 38.351562 269.90625 37.664062 C 267.050781 36.976562 264.179688 36.355469 261.292969 35.800781 C 258.410156 35.242188 255.511719 34.753906 252.605469 34.328125 C 249.699219 33.90625 246.785156 33.550781 243.859375 33.257812 C 240.9375 32.96875 238.007812 32.746094 235.074219 32.589844 C 234.601562 32.566406 234.132812 32.589844 233.667969 32.664062 C 233.199219 32.734375 232.746094 32.851562 232.300781 33.015625 C 231.859375 33.179688 231.4375 33.386719 231.035156 33.636719 C 230.636719 33.886719 230.265625 34.175781 229.921875 34.5 C 229.582031 34.824219 229.273438 35.183594 229.003906 35.570312 C 228.734375 35.957031 228.507812 36.367188 228.320312 36.800781 C 228.136719 37.238281 227.996094 37.683594 227.902344 38.148438 C 227.804688 38.609375 227.757812 39.078125 227.757812 39.550781 L 227.757812 85.574219 C 227.898438 85.625 228.035156 85.628906 228.175781 85.582031 C 228.316406 85.535156 228.429688 85.453125 228.511719 85.328125 C 231.40625 81.261719 235.378906 79.273438 239.375 79.933594 C 243.410156 80.601562 246.796875 83.792969 248.4375 88.46875 C 249.152344 90.53125 249.507812 92.652344 249.507812 94.835938 C 249.507812 97.019531 249.152344 99.140625 248.4375 101.203125 C 246.796875 105.882812 243.410156 109.074219 239.375 109.738281 C 235.378906 110.398438 231.402344 108.410156 228.472656 104.285156 C 228.277344 104.050781 228.042969 103.988281 227.757812 104.097656 L 227.757812 150.121094 C 227.757812 150.539062 227.796875 150.953125 227.871094 151.363281 C 227.945312 151.773438 228.054688 152.175781 228.203125 152.566406 C 228.351562 152.957031 228.53125 153.332031 228.746094 153.691406 C 228.960938 154.046875 229.203125 154.382812 229.480469 154.699219 C 229.753906 155.011719 230.054688 155.300781 230.382812 155.558594 C 230.707031 155.820312 231.054688 156.046875 231.421875 156.246094 C 231.789062 156.445312 232.171875 156.605469 232.570312 156.734375 C 232.96875 156.863281 233.371094 156.957031 233.785156 157.011719 C 235.636719 157.253906 237.476562 157.570312 239.304688 157.964844 C 241.128906 158.359375 242.933594 158.828125 244.722656 159.367188 C 246.511719 159.910156 248.273438 160.523438 250.007812 161.207031 C 251.746094 161.894531 253.453125 162.648438 255.128906 163.476562 C 256.804688 164.300781 258.441406 165.195312 260.042969 166.152344 C 261.648438 167.113281 263.207031 168.136719 264.726562 169.222656 C 266.242188 170.3125 267.714844 171.460938 269.140625 172.667969 C 270.5625 173.875 271.933594 175.140625 273.257812 176.460938 C 274.578125 177.78125 275.839844 179.15625 277.050781 180.578125 C 278.257812 182.003906 279.40625 183.472656 280.492188 184.992188 C 281.582031 186.511719 282.605469 188.070312 283.5625 189.671875 C 284.523438 191.273438 285.417969 192.914062 286.242188 194.589844 C 287.066406 196.265625 287.824219 197.972656 288.507812 199.707031 C 289.195312 201.445312 289.808594 203.207031 290.351562 204.996094 C 290.890625 206.78125 291.359375 208.589844 291.753906 210.414062 C 292.144531 212.242188 292.464844 214.078125 292.707031 215.929688 C 292.761719 216.34375 292.855469 216.75 292.984375 217.148438 C 293.109375 217.542969 293.273438 217.925781 293.472656 218.292969 C 293.667969 218.664062 293.898438 219.011719 294.15625 219.335938 C 294.417969 219.664062 294.703125 219.964844 295.019531 220.238281 C 295.332031 220.511719 295.667969 220.757812 296.027344 220.972656 C 296.386719 221.1875 296.761719 221.367188 297.152344 221.515625 C 297.542969 221.660156 297.941406 221.773438 298.351562 221.847656 C 298.765625 221.921875 299.179688 221.960938 299.59375 221.960938 L 344.867188 221.960938 C 350.5 221.960938 352.9375 229.300781 348.390625 232.628906 C 346.503906 233.972656 344.617188 236.121094 345.015625 238.542969 C 345.441406 241.113281 347.910156 242.816406 350.203125 243.617188 C 351.71875 244.144531 353.277344 244.40625 354.882812 244.40625 C 356.484375 244.40625 358.046875 244.144531 359.5625 243.617188 Z M 359.5625 243.617188 " fill-opacity="1" fill-rule="nonzero"/></g></svg>